<svg xmlns="http://www.w3.org/2000/svg" xmlns:xlink="http://www.w3.org/1999/xlink" version="1.1" width="252" height="252" viewBox="0 0 252 252">
<defs>
<clipPath id="clip_0">
<path transform="matrix(1,0,0,-1,0,252)" d="M0 252H252V0H0Z"/>
</clipPath>
</defs>
<g id="layer_1" data-name="Layer 2">
<g id="layer_2" data-name="Fixed">
<g clip-path="url(#clip_0)">
<path transform="matrix(1,0,0,-1,201.1641,85.846698)" d="M0 0C6.632-12.101 10.406-25.988 10.406-40.76 10.406-72.105-6.581-99.471-31.84-114.198L-5.89-39.168C-1.043-27.047 .571-17.355 .571-8.737 .571-5.609 .365-2.706 0 0M-62.846-.925C-57.731-.656-53.122-.118-53.122-.118-48.544 .424-49.084 7.152-53.664 6.884-53.664 6.884-67.426 5.804-76.31 5.804-84.658 5.804-98.686 6.884-98.686 6.884-103.268 7.152-103.805 .153-99.225-.118-99.225-.118-94.891-.656-90.313-.925L-77.077-37.194-95.673-92.957-126.611-.925C-121.492-.656-116.888-.118-116.888-.118-112.313 .424-112.853 7.152-117.431 6.884-117.431 6.884-131.19 5.804-140.075 5.804-141.669 5.804-143.548 5.843-145.543 5.907-130.351 28.971-104.239 44.202-74.555 44.202-52.437 44.202-32.297 35.745-17.182 21.895-17.548 21.917-17.905 21.963-18.282 21.963-26.628 21.963-32.55 14.693-32.55 6.884-32.55-.118-28.51-6.042-24.204-13.043-20.973-18.702-17.199-25.971-17.199-36.475-17.199-43.746-19.996-52.185-23.664-63.941L-32.141-92.256ZM-74.555-125.729C-82.895-125.729-90.944-124.506-98.558-122.267L-73.063-48.192-46.949-119.741C-46.777-120.161-46.566-120.548-46.341-120.912-55.172-124.021-64.661-125.729-74.555-125.729M-159.517-40.76C-159.517-28.442-156.875-16.749-152.16-6.183L-111.631-117.225C-139.976-103.455-159.517-74.39-159.517-40.76M-74.555 53.737C-126.662 53.737-169.054 11.346-169.054-40.76-169.054-92.868-126.662-135.264-74.555-135.264-22.449-135.264 19.945-92.868 19.945-40.76 19.945 11.346-22.449 53.737-74.555 53.737" fill="#fff"/>
</g>
</g>
</g>
</svg>
